<svg width="52" height="83" viewBox="0 0 52 83" fill="none" xmlns="http://www.w3.org/2000/svg">
<ellipse cx="25.8461" cy="80" rx="23.5" ry="3" fill="#EFE9FA"/>
<path d="M51.5286 43.662C51.5286 42.744 40.0706 42 25.9376 42C11.8046 42 0.346619 42.744 0.346619 43.662L0.96562 49.271L4.39862 50.182L9.06462 79.32C9.06462 79.32 16.9296 81.112 25.9376 81.021C34.9456 81.111 42.8106 79.32 42.8106 79.32L47.4766 50.182L50.9096 49.271L51.5286 43.662Z" fill="#82531D"/>
<path d="M50.6756 44.06C50.6756 43.163 39.5996 42.461 25.9366 42.461C12.2736 42.461 1.19763 43.109 1.19763 44.007L1.71763 48.436L5.11463 49.995L9.62563 78.484C9.62563 78.484 17.2286 80.236 25.9366 80.148C34.6446 80.236 42.2476 78.484 42.2476 78.484L46.7586 49.995L50.1356 48.64L50.6766 44.298L50.6756 44.06Z" fill="#D7AC7C"/>
<path d="M48.8556 46.635C47.9076 46.486 46.9866 46.366 46.0236 46.41C45.1286 46.451 44.2406 46.58 43.3506 46.678C42.4606 46.776 41.5876 46.824 40.6966 46.706C39.8466 46.594 39.0136 46.383 38.1746 46.214C37.2456 46.027 36.3036 45.904 35.3546 45.925C34.4096 45.946 33.4716 46.083 32.5416 46.246C31.6246 46.407 30.7116 46.596 29.7896 46.728C28.9056 46.855 28.0246 46.887 27.1326 46.839C25.3166 46.741 23.5336 46.364 21.7366 46.107C20.7716 45.969 19.8206 45.908 18.8466 45.971C17.8846 46.033 16.9326 46.185 15.9846 46.356C14.1766 46.683 12.3686 47.1 10.5206 47.067C8.78064 47.035 7.07164 46.689 5.35564 46.43C4.12464 46.244 2.69864 46.056 1.49164 46.498L1.71864 48.436L5.11564 49.995L9.62664 78.484C9.62664 78.484 17.2296 80.236 25.9376 80.148C34.6456 80.236 42.2486 78.484 42.2486 78.484L46.7596 49.995L50.1366 48.64L50.3586 46.859C49.8556 46.789 49.3546 46.713 48.8556 46.635Z" fill="#804B1B"/>
<path d="M50.0296 48.508C48.6966 49.045 47.2306 49.377 46.0146 50.168C44.9456 50.863 44.2496 51.944 43.7536 53.096C43.2666 54.227 42.8996 55.419 42.5366 56.595C42.1926 57.709 41.8726 58.83 41.5306 59.945C40.8556 62.151 40.1006 64.363 38.9236 66.358C37.7406 68.365 36.1116 70.052 34.0446 71.15C31.9556 72.26 29.6266 72.885 27.2666 73.012C24.9166 73.139 22.5426 72.776 20.3316 71.972C18.1156 71.165 16.0616 69.915 14.3526 68.289C12.3946 66.426 11.0566 64.105 10.0196 61.629C8.92159 59.006 8.10759 56.271 6.90559 53.691C6.46959 52.755 5.96159 51.834 5.28259 51.052L9.62659 78.485C9.62659 78.485 17.2296 80.237 25.9376 80.149C34.6456 80.237 42.2486 78.485 42.2486 78.485L46.7596 49.996L50.1366 48.641L50.1596 48.457C50.1156 48.473 50.0726 48.491 50.0296 48.508Z" fill="#AD6A1D"/>
<g opacity="0.42">
<path d="M12.0046 72.037C11.7666 71.862 11.4526 71.779 11.1656 71.869C10.8236 71.976 10.6146 72.329 10.3876 72.584C10.3136 72.667 10.2376 72.753 10.1956 72.857C10.0816 73.137 10.2796 73.308 10.5306 73.36C10.7516 73.406 10.9686 73.396 11.1876 73.341C11.4206 73.282 11.6496 73.181 11.8396 73.031C12.1366 72.798 12.3936 72.324 12.0046 72.037Z" fill="#82531D"/>
<path d="M25.8246 71.337C25.7056 71.249 25.5486 71.208 25.4056 71.253C25.2346 71.306 25.1296 71.483 25.0166 71.611C24.9796 71.653 24.9416 71.696 24.9206 71.747C24.8636 71.887 24.9626 71.973 25.0886 71.999C25.1996 72.022 25.3076 72.017 25.4176 71.989C25.5346 71.959 25.6486 71.909 25.7436 71.834C25.8916 71.717 26.0196 71.48 25.8246 71.337Z" fill="#82531D"/>
<path d="M11.4726 68.683C11.4726 68.683 11.4746 68.681 11.4766 68.68C11.4676 68.687 11.4686 68.687 11.4726 68.683Z" fill="#82531D"/>
<path d="M16.3696 75.229C16.2616 75.159 16.1396 75.106 16.0166 75.072C15.1646 74.841 14.3626 75.363 14.0426 76.136C13.9316 76.404 13.8896 76.713 13.9896 76.986C14.2136 77.598 14.9276 77.539 15.4296 77.359C16.0016 77.154 16.8736 76.452 16.7526 75.757C16.7126 75.534 16.5626 75.354 16.3696 75.229Z" fill="#82531D"/>
<path d="M16.7026 69.824C16.6496 69.58 16.4866 69.407 16.2406 69.351C15.9136 69.276 15.5736 69.404 15.3116 69.599C15.2396 69.653 15.1676 69.715 15.1006 69.783C15.0096 69.842 14.9276 69.913 14.8656 70.001C14.7766 70.127 14.7596 70.246 14.7886 70.357C14.7876 70.367 14.7856 70.378 14.7846 70.388C14.7816 70.423 14.8016 70.447 14.8286 70.458C14.9486 70.684 15.2496 70.859 15.4706 70.943C15.6726 71.02 15.9196 71.072 16.1336 71.019C16.3736 70.959 16.5326 70.755 16.6256 70.536C16.7206 70.319 16.7536 70.058 16.7026 69.824Z" fill="#82531D"/>
<path d="M12.4126 75.886C12.3496 75.819 12.2516 75.78 12.1576 75.777C11.8426 75.767 11.4466 76.004 11.3036 76.28C11.2706 76.344 11.2456 76.418 11.2626 76.488C11.2936 76.62 11.4486 76.678 11.5836 76.686C11.8876 76.703 12.1966 76.559 12.3796 76.316C12.4506 76.221 12.5046 76.099 12.4706 75.985C12.4586 75.947 12.4386 75.914 12.4126 75.886Z" fill="#82531D"/>
</g>
<g opacity="0.42">
<path d="M35.7446 72.961C35.5216 72.796 35.2276 72.719 34.9586 72.803C34.6376 72.903 34.4416 73.234 34.2296 73.474C34.1606 73.552 34.0896 73.633 34.0496 73.73C33.9426 73.992 34.1286 74.154 34.3646 74.202C34.5716 74.245 34.7756 74.236 34.9806 74.184C35.1996 74.128 35.4136 74.034 35.5916 73.894C35.8686 73.674 36.1096 73.23 35.7446 72.961Z" fill="#82531D"/>
<path d="M34.3956 69.14C34.3956 69.14 34.3976 69.138 34.3996 69.137C34.3896 69.144 34.3906 69.144 34.3956 69.14Z" fill="#82531D"/>
<path d="M40.9316 74.761C40.8236 74.691 40.7016 74.638 40.5786 74.604C39.7266 74.373 38.9246 74.895 38.6046 75.668C38.4936 75.936 38.4516 76.245 38.5506 76.518C38.7746 77.13 39.4886 77.071 39.9906 76.891C40.5636 76.686 41.4346 75.984 41.3136 75.289C41.2756 75.066 41.1246 74.886 40.9316 74.761Z" fill="#82531D"/>
<path d="M41.9586 67.443C41.9056 67.199 41.7426 67.026 41.4966 66.97C41.1696 66.895 40.8296 67.023 40.5676 67.218C40.4956 67.272 40.4236 67.334 40.3566 67.402C40.2656 67.461 40.1836 67.532 40.1216 67.62C40.0326 67.746 40.0156 67.865 40.0446 67.976C40.0436 67.987 40.0416 67.997 40.0406 68.007C40.0376 68.042 40.0576 68.066 40.0846 68.078C40.2046 68.304 40.5056 68.479 40.7266 68.563C40.9286 68.64 41.1756 68.692 41.3896 68.639C41.6296 68.58 41.7886 68.375 41.8816 68.156C41.9766 67.937 42.0096 67.676 41.9586 67.443Z" fill="#82531D"/>
<path d="M35.3346 76.342C35.2716 76.275 35.1736 76.236 35.0786 76.233C34.7636 76.223 34.3676 76.46 34.2246 76.736C34.1916 76.8 34.1666 76.874 34.1836 76.944C34.2146 77.075 34.3696 77.134 34.5046 77.142C34.8086 77.159 35.1176 77.016 35.3006 76.772C35.3716 76.677 35.4256 76.555 35.3916 76.441C35.3816 76.404 35.3606 76.37 35.3346 76.342Z" fill="#82531D"/>
</g>
<g opacity="0.42">
<path d="M26.7986 75.878C27.2886 76.211 27.9226 76.353 28.4906 76.152C29.1676 75.913 29.5596 75.19 29.9946 74.66C30.1366 74.487 30.2816 74.31 30.3576 74.099C30.5646 73.53 30.1546 73.201 29.6476 73.116C29.2016 73.041 28.7666 73.077 28.3326 73.204C27.8706 73.34 27.4196 73.56 27.0506 73.874C26.4776 74.364 25.9976 75.333 26.7986 75.878Z" fill="#82531D"/>
<path d="M25.6776 75.326L25.6746 75.329C25.6826 75.322 25.6816 75.322 25.6776 75.326Z" fill="#82531D"/>
<path d="M24.0996 74.997C24.1346 75.018 24.1736 75.033 24.2126 75.042C24.4846 75.105 24.7306 74.93 24.8226 74.683C24.8546 74.597 24.8646 74.499 24.8296 74.414C24.7516 74.223 24.5276 74.251 24.3706 74.313C24.1926 74.385 23.9256 74.616 23.9726 74.834C23.9876 74.905 24.0366 74.96 24.0996 74.997Z" fill="#82531D"/>
<path d="M20.4336 76.538C20.4956 76.78 20.6656 76.947 20.9126 76.994C21.2426 77.057 21.5776 76.916 21.8316 76.711C21.9016 76.654 21.9716 76.59 22.0356 76.519C22.1236 76.457 22.2026 76.382 22.2626 76.292C22.3466 76.163 22.3596 76.043 22.3266 75.934C22.3276 75.924 22.3286 75.913 22.3296 75.902C22.3316 75.867 22.3106 75.844 22.2826 75.833C22.1536 75.612 21.8466 75.448 21.6226 75.372C21.4176 75.303 21.1696 75.26 20.9566 75.322C20.7186 75.39 20.5676 75.601 20.4826 75.823C20.3966 76.045 20.3736 76.306 20.4336 76.538Z" fill="#82531D"/>
<path d="M20.4746 69.278C20.5396 69.343 20.6396 69.378 20.7336 69.377C21.0486 69.376 21.4356 69.124 21.5676 68.842C21.5986 68.777 21.6196 68.702 21.6006 68.633C21.5646 68.503 21.4076 68.45 21.2726 68.447C20.9676 68.441 20.6646 68.596 20.4916 68.847C20.4236 68.945 20.3746 69.069 20.4126 69.181C20.4256 69.218 20.4476 69.251 20.4746 69.278Z" fill="#82531D"/>
<path d="M22.1056 70.25C22.1376 70.282 22.1866 70.299 22.2326 70.298C22.3866 70.297 22.5756 70.174 22.6406 70.036C22.6556 70.004 22.6666 69.968 22.6566 69.934C22.6386 69.87 22.5616 69.844 22.4966 69.843C22.3476 69.84 22.1996 69.916 22.1146 70.039C22.0816 70.087 22.0576 70.148 22.0756 70.202C22.0816 70.221 22.0926 70.237 22.1056 70.25Z" fill="#82531D"/>
</g>
<g opacity="0.42">
<path d="M39.4126 56.3C39.9016 56.633 40.5366 56.775 41.1046 56.574C41.7816 56.335 42.1736 55.612 42.6086 55.082C42.7506 54.909 42.8956 54.732 42.9716 54.521C43.1786 53.952 42.7686 53.623 42.2616 53.538C41.8156 53.463 41.3806 53.498 40.9466 53.626C40.4846 53.762 40.0336 53.982 39.6646 54.296C39.0906 54.785 38.6106 55.754 39.4126 56.3Z" fill="#82531D"/>
<path d="M38.4986 62.229C38.4986 62.229 38.4966 62.231 38.4946 62.232C38.5046 62.224 38.5036 62.225 38.4986 62.229Z" fill="#82531D"/>
<path d="M36.9206 61.9C36.9556 61.921 36.9946 61.936 37.0336 61.945C37.3056 62.008 37.5516 61.833 37.6436 61.586C37.6756 61.5 37.6846 61.402 37.6506 61.317C37.5726 61.127 37.3486 61.154 37.1916 61.216C37.0136 61.287 36.7466 61.519 36.7936 61.737C36.8086 61.808 36.8586 61.863 36.9206 61.9Z" fill="#82531D"/>
<path d="M32.0376 68.78C32.1006 69.022 32.2696 69.189 32.5166 69.235C32.8466 69.298 33.1816 69.157 33.4356 68.952C33.5056 68.895 33.5756 68.831 33.6396 68.76C33.7286 68.698 33.8076 68.624 33.8666 68.533C33.9506 68.404 33.9636 68.284 33.9306 68.175C33.9316 68.164 33.9326 68.154 33.9336 68.143C33.9356 68.108 33.9146 68.085 33.8866 68.074C33.7576 67.853 33.4506 67.689 33.2266 67.613C33.0216 67.544 32.7736 67.501 32.5606 67.562C32.3226 67.63 32.1716 67.841 32.0866 68.063C32.0006 68.286 31.9776 68.548 32.0376 68.78Z" fill="#82531D"/>
<path d="M33.2966 56.181C33.3626 56.246 33.4616 56.28 33.5556 56.28C33.8706 56.278 34.2576 56.027 34.3896 55.745C34.4206 55.68 34.4426 55.605 34.4226 55.536C34.3866 55.406 34.2296 55.353 34.0946 55.35C33.7896 55.344 33.4866 55.499 33.3136 55.75C33.2456 55.848 33.1966 55.972 33.2346 56.084C33.2476 56.121 33.2686 56.153 33.2966 56.181Z" fill="#82531D"/>
<path d="M34.9276 57.153C34.9596 57.185 35.0086 57.202 35.0546 57.201C35.2086 57.2 35.3976 57.077 35.4626 56.939C35.4776 56.907 35.4886 56.871 35.4786 56.837C35.4606 56.773 35.3836 56.747 35.3176 56.746C35.1686 56.743 35.0206 56.819 34.9356 56.942C34.9026 56.99 34.8786 57.05 34.8966 57.105C34.9036 57.123 34.9136 57.139 34.9276 57.153Z" fill="#82531D"/>
</g>
<g opacity="0.42">
<path d="M8.25963 55.672C8.45063 55.802 8.69664 55.857 8.91764 55.779C9.18064 55.686 9.33363 55.405 9.50263 55.199C9.55763 55.132 9.61463 55.063 9.64364 54.981C9.72364 54.76 9.56463 54.632 9.36763 54.599C9.19363 54.57 9.02463 54.584 8.85663 54.633C8.67663 54.686 8.50164 54.772 8.35764 54.893C8.13464 55.083 7.94863 55.46 8.25963 55.672Z" fill="#82531D"/>
<path d="M16.2746 59.416C16.2746 59.416 16.2726 59.418 16.2706 59.419C16.2796 59.411 16.2786 59.412 16.2746 59.416Z" fill="#82531D"/>
<path d="M14.6966 59.087C14.7316 59.108 14.7706 59.123 14.8096 59.132C15.0816 59.195 15.3276 59.02 15.4196 58.773C15.4516 58.687 15.4606 58.589 15.4266 58.504C15.3486 58.313 15.1246 58.341 14.9676 58.403C14.7896 58.475 14.5226 58.706 14.5696 58.924C14.5846 58.995 14.6336 59.05 14.6966 59.087Z" fill="#82531D"/>
<path d="M10.9306 66.11C10.9936 66.352 11.1626 66.519 11.4096 66.566C11.7396 66.629 12.0746 66.488 12.3286 66.283C12.3986 66.226 12.4686 66.162 12.5326 66.091C12.6216 66.029 12.6996 65.955 12.7596 65.864C12.8436 65.735 12.8566 65.615 12.8236 65.506C12.8246 65.495 12.8256 65.485 12.8266 65.474C12.8286 65.439 12.8076 65.416 12.7796 65.405C12.6506 65.184 12.3436 65.02 12.1196 64.944C11.9146 64.875 11.6666 64.832 11.4536 64.893C11.2156 64.961 11.0646 65.172 10.9796 65.394C10.8936 65.617 10.8706 65.879 10.9306 66.11Z" fill="#82531D"/>
<path d="M11.0716 53.368C11.1376 53.433 11.2366 53.468 11.3306 53.467C11.6456 53.465 12.0326 53.214 12.1646 52.932C12.1956 52.867 12.2166 52.792 12.1976 52.723C12.1616 52.593 12.0046 52.54 11.8696 52.537C11.5646 52.531 11.2616 52.686 11.0886 52.937C11.0206 53.035 10.9716 53.159 11.0096 53.271C11.0226 53.308 11.0436 53.34 11.0716 53.368Z" fill="#82531D"/>
<path d="M12.7026 54.34C12.7346 54.372 12.7836 54.389 12.8296 54.388C12.9836 54.387 13.1726 54.264 13.2376 54.126C13.2526 54.094 13.2636 54.058 13.2536 54.024C13.2356 53.96 13.1586 53.934 13.0926 53.933C12.9436 53.93 12.7956 54.006 12.7106 54.129C12.6776 54.177 12.6536 54.237 12.6716 54.292C12.6786 54.31 12.6886 54.326 12.7026 54.34Z" fill="#82531D"/>
</g>
<path opacity="0.3" d="M48.8556 46.635C47.9076 46.486 46.9866 46.366 46.0236 46.41C45.1286 46.451 44.2406 46.58 43.3506 46.678C42.4606 46.776 41.5876 46.824 40.6966 46.706C39.8466 46.594 39.0136 46.383 38.1746 46.214C37.2456 46.027 36.3036 45.904 35.3546 45.925C34.4096 45.946 33.4716 46.083 32.5416 46.246C31.6246 46.407 30.7116 46.596 29.7896 46.728C28.9056 46.855 28.0246 46.887 27.1326 46.839C25.3166 46.741 23.5336 46.364 21.7366 46.107C20.7716 45.969 19.8206 45.908 18.8466 45.971C17.8846 46.033 16.9326 46.185 15.9846 46.356C14.1766 46.683 12.3686 47.1 10.5206 47.067C8.7806 47.035 7.0716 46.689 5.3556 46.43C4.1576 46.249 2.7756 46.068 1.5896 46.465C1.5956 46.497 1.6026 46.529 1.6116 46.562C1.7466 47.041 2.1006 47.449 2.4576 47.782C2.8716 48.168 3.3516 48.465 3.8486 48.733C5.1296 49.423 6.6246 49.909 8.0896 49.639C8.1286 49.632 8.1586 49.655 8.1626 49.694C8.2186 50.358 8.7866 50.82 9.3246 51.131C10.3526 51.725 11.5656 52.014 12.7306 52.19C13.7906 52.351 14.8466 52.296 15.8886 52.048C16.9016 51.807 17.8706 51.414 18.8156 50.981C18.8456 50.967 18.8746 50.974 18.8936 51.002C19.0606 51.24 19.3296 51.39 19.6126 51.503C19.7266 51.521 19.8406 51.542 19.9536 51.565C20.8966 51.76 21.8046 52.108 22.7646 52.224C23.7476 52.342 24.7296 52.43 25.7196 52.458C27.6536 52.512 29.6186 52.422 31.5246 52.074C32.4186 51.911 33.3556 51.7 34.1746 51.295C34.5326 51.119 34.8836 50.922 35.2626 50.795C35.6356 50.67 35.9866 50.688 36.3726 50.742C37.2916 50.87 38.1816 51.157 39.1106 51.223C40.1096 51.294 41.1146 51.232 42.1036 51.084C43.0626 50.941 44.0156 50.732 44.9476 50.467C45.7096 50.251 46.4636 50.007 47.2296 49.804L50.1356 48.638L50.3576 46.857C49.8556 46.789 49.3546 46.713 48.8556 46.635Z" fill="#82531D"/>
<path d="M47.9116 46.872C47.5686 46.522 47.0346 46.395 46.5676 46.312C46.0856 46.227 45.5976 46.191 45.1096 46.171C44.2756 46.137 43.4386 46.106 42.6046 46.143C42.5696 46.144 42.5346 46.146 42.4996 46.148C42.4976 46.145 42.4966 46.142 42.4946 46.139C42.2416 45.735 41.7786 45.479 41.3476 45.312C40.8706 45.127 40.3626 45.037 39.8566 44.97C39.3286 44.9 38.7946 44.852 38.2626 44.82C36.8336 44.735 35.3956 44.814 33.9816 45.033C33.4716 45.112 32.9666 45.219 32.4586 45.308C32.0616 45.377 31.6656 45.452 31.2746 45.548C30.9046 45.639 30.5336 45.748 30.1856 45.907C29.6146 45.635 29.0216 45.411 28.4136 45.235C27.0166 44.831 25.5446 44.64 24.0926 44.606C23.3356 44.588 22.5746 44.631 21.8226 44.719C21.5326 44.753 21.2516 44.805 20.9676 44.873C20.6406 44.951 20.3136 45.037 19.9896 45.133C19.8776 45.072 19.7636 45.017 19.6496 44.969C19.0986 44.735 18.4606 44.702 17.8706 44.726C17.1736 44.754 16.4816 44.895 15.8346 45.156C15.4786 45.3 15.1456 45.478 14.8336 45.688C14.3826 45.435 13.8306 45.344 13.3276 45.274C12.2526 45.125 11.1156 45.141 10.0606 45.403C9.67759 45.498 9.29359 45.633 8.96559 45.857C8.93059 45.881 8.89459 45.907 8.85859 45.935C8.81559 45.915 8.77159 45.896 8.72959 45.877C8.44959 45.756 8.14459 45.688 7.84259 45.642C7.21459 45.548 6.57459 45.58 5.9446 45.623C5.4206 45.659 4.89359 45.675 4.37259 45.745C3.85159 45.815 3.28859 45.944 2.89359 46.312C2.19159 46.966 3.3236 47.553 3.8266 47.784C4.6916 48.181 5.62859 48.44 6.55459 48.648C7.17759 48.788 7.81659 48.899 8.45959 48.964C8.58159 49.05 8.70359 49.131 8.82159 49.204C9.42359 49.579 10.0836 49.859 10.7616 50.066C12.5546 50.614 14.4586 50.825 16.3266 50.643C17.2496 50.553 18.1586 50.37 19.0366 50.077C19.5916 50.424 20.2326 50.658 20.8446 50.829C22.1906 51.206 23.5936 51.32 24.9856 51.351C26.4576 51.384 27.9356 51.361 29.4036 51.256C30.9106 51.148 32.4176 50.948 33.8846 50.58C34.5206 50.42 35.1456 50.212 35.7556 49.971C36.3016 50.077 36.8576 50.134 37.4126 50.169C38.3326 50.227 39.2586 50.216 40.1786 50.156C41.0936 50.096 42.0046 49.993 42.9116 49.86C43.7676 49.734 44.6336 49.607 45.4706 49.382C46.2546 49.171 47.0436 48.847 47.6606 48.305C47.9106 48.086 48.1416 47.784 48.1426 47.437C48.1426 47.222 48.0626 47.026 47.9116 46.872Z" fill="#82531D"/>
<path opacity="0.59" d="M47.9116 46.872C47.5686 46.522 47.0346 46.395 46.5676 46.312C46.0856 46.227 45.5976 46.191 45.1096 46.171C44.2756 46.137 43.4386 46.106 42.6046 46.143C42.5696 46.144 42.5346 46.146 42.4996 46.148C42.4976 46.145 42.4966 46.142 42.4946 46.139C42.2416 45.735 41.7786 45.479 41.3476 45.312C40.8706 45.127 40.3626 45.037 39.8566 44.97C39.3286 44.9 38.7946 44.852 38.2626 44.82C36.8336 44.735 35.3956 44.814 33.9816 45.033C33.4716 45.112 32.9666 45.219 32.4586 45.308C32.0616 45.377 31.6656 45.452 31.2746 45.548C30.9046 45.639 30.5336 45.748 30.1856 45.907C29.6146 45.635 29.0216 45.411 28.4136 45.235C27.0166 44.831 25.5446 44.64 24.0926 44.606C23.3356 44.588 22.5746 44.631 21.8226 44.719C21.5326 44.753 21.2516 44.805 20.9676 44.873C20.6406 44.951 20.3136 45.037 19.9896 45.133C19.8776 45.072 19.7636 45.017 19.6496 44.969C19.0986 44.735 18.4606 44.702 17.8706 44.726C17.1736 44.754 16.4816 44.895 15.8346 45.156C15.4786 45.3 15.1456 45.478 14.8336 45.688C14.3826 45.435 13.8306 45.344 13.3276 45.274C12.2526 45.125 11.1156 45.141 10.0606 45.403C9.67759 45.498 9.29359 45.633 8.96559 45.857C8.93059 45.881 8.89459 45.907 8.85859 45.935C8.81559 45.915 8.77159 45.896 8.72959 45.877C8.44959 45.756 8.14459 45.688 7.84259 45.642C7.21459 45.548 6.57459 45.58 5.9446 45.623C5.4206 45.659 4.89359 45.675 4.37259 45.745C3.85159 45.815 3.28859 45.944 2.89359 46.312C2.19159 46.966 3.3236 47.553 3.8266 47.784C4.6916 48.181 5.62859 48.44 6.55459 48.648C7.17759 48.788 7.81659 48.899 8.45959 48.964C8.58159 49.05 8.70359 49.131 8.82159 49.204C9.42359 49.579 10.0836 49.859 10.7616 50.066C12.5546 50.614 14.4586 50.825 16.3266 50.643C17.2496 50.553 18.1586 50.37 19.0366 50.077C19.5916 50.424 20.2326 50.658 20.8446 50.829C22.1906 51.206 23.5936 51.32 24.9856 51.351C26.4576 51.384 27.9356 51.361 29.4036 51.256C30.9106 51.148 32.4176 50.948 33.8846 50.58C34.5206 50.42 35.1456 50.212 35.7556 49.971C36.3016 50.077 36.8576 50.134 37.4126 50.169C38.3326 50.227 39.2586 50.216 40.1786 50.156C41.0936 50.096 42.0046 49.993 42.9116 49.86C43.7676 49.734 44.6336 49.607 45.4706 49.382C46.2546 49.171 47.0436 48.847 47.6606 48.305C47.9106 48.086 48.1416 47.784 48.1426 47.437C48.1426 47.222 48.0626 47.026 47.9116 46.872ZM10.2536 48.003C10.0276 48.172 9.73059 48.244 9.45859 48.297C9.16259 48.355 8.86059 48.386 8.55959 48.403C8.06059 48.431 7.54559 48.412 7.05259 48.333C6.79359 48.292 6.4456 48.23 6.2776 48.005C6.1876 47.884 6.18059 47.72 6.27959 47.602C6.29859 47.58 6.3206 47.56 6.3436 47.542C5.8656 47.601 5.38059 47.632 4.90059 47.574C4.65359 47.544 4.40859 47.493 4.17159 47.415C3.96959 47.348 3.76359 47.272 3.59159 47.143C3.46159 47.046 3.3426 46.915 3.3196 46.749C3.2926 46.558 3.40859 46.389 3.54459 46.266C3.81659 46.022 4.18959 45.892 4.54059 45.816C5.28459 45.656 6.06659 45.707 6.81559 45.803C7.24559 45.858 7.68359 45.953 8.08059 46.132C8.25759 46.212 8.4666 46.324 8.54859 46.51C8.60059 46.628 8.57659 46.742 8.51859 46.842C8.63859 46.842 8.75859 46.845 8.87859 46.851C9.1986 46.868 9.52459 46.905 9.83059 47.003C10.0606 47.077 10.3256 47.197 10.4306 47.43C10.5306 47.652 10.4386 47.865 10.2536 48.003ZM13.8406 46.638C13.6816 46.767 13.4686 46.828 13.2726 46.872C13.0336 46.926 12.7896 46.959 12.5446 46.975C12.1286 47.003 11.7126 46.981 11.2996 46.928C10.9776 46.887 10.6396 46.838 10.3436 46.695C10.1396 46.596 9.94359 46.394 10.0036 46.148C10.0546 45.939 10.2806 45.824 10.4636 45.754C10.7166 45.658 10.9896 45.614 11.2576 45.592C11.4116 45.579 11.5736 45.569 11.7316 45.582C12.0646 45.57 12.3986 45.596 12.7266 45.662C13.0846 45.734 13.4756 45.838 13.7686 46.068C13.8576 46.138 13.9486 46.23 13.9696 46.345C13.9926 46.463 13.9296 46.566 13.8406 46.638ZM20.0426 46.128C19.9346 46.345 19.7046 46.498 19.5006 46.618C19.2996 46.736 19.0836 46.828 18.8626 46.902C18.3716 47.067 17.8496 47.147 17.3316 47.163C16.8406 47.178 16.3376 47.136 15.8666 46.993C15.6786 46.936 15.4826 46.864 15.3196 46.754C15.2166 46.685 15.1156 46.59 15.0916 46.463C15.0436 46.204 15.3156 45.999 15.5026 45.875C15.7926 45.682 16.1196 45.543 16.4446 45.42C16.6956 45.325 16.9526 45.238 17.2166 45.185C17.6856 45.091 18.1686 45.029 18.6476 45.058C19.0836 45.085 19.5466 45.194 19.8656 45.508C20.0576 45.656 20.1716 45.869 20.0426 46.128ZM25.1466 45.647C25.0566 45.765 24.8916 45.824 24.7576 45.872C24.5786 45.935 24.3916 45.978 24.2036 46.007C24.0046 46.037 23.8026 46.049 23.6006 46.059C23.2916 46.074 22.9816 46.078 22.6726 46.065C22.3606 46.052 22.0416 46.027 21.7386 45.947C21.5396 45.894 21.2816 45.805 21.1976 45.596C21.1036 45.362 21.2856 45.173 21.4866 45.084C21.7926 44.949 22.1496 44.924 22.4796 44.916C22.6996 44.911 22.9366 44.909 23.1596 44.946C23.5786 44.95 23.9996 45.017 24.4036 45.112C24.5716 45.151 25.3976 45.316 25.1466 45.647ZM37.1646 47.518C36.6026 47.758 35.9926 47.853 35.3956 47.963C34.5276 48.123 33.6336 48.216 32.7506 48.177C32.3456 48.159 31.9446 48.105 31.5486 48.023C31.2676 47.965 30.9776 47.892 30.7306 47.742C30.5086 47.607 30.3466 47.402 30.3336 47.136C30.3236 46.941 30.4056 46.76 30.5326 46.616C30.6766 46.453 30.8696 46.336 31.0636 46.243C31.1906 46.182 31.3216 46.132 31.4546 46.087C31.4536 46.069 31.4606 46.051 31.4806 46.039C31.6266 45.952 31.7766 45.872 31.9296 45.799C32.5906 45.488 33.3086 45.308 34.0346 45.235C34.7746 45.16 35.5306 45.199 36.2556 45.368C36.5966 45.448 36.9496 45.551 37.2626 45.71C37.5236 45.843 37.8066 46.003 37.9736 46.252C38.3586 46.826 37.6176 47.325 37.1646 47.518ZM44.5646 48.039C44.2856 48.112 44.0076 48.174 43.7226 48.216C43.3436 48.272 42.9616 48.312 42.5796 48.334C42.1646 48.357 41.7446 48.361 41.3326 48.303C41.0466 48.263 40.6936 48.192 40.4966 47.959C40.2916 47.716 40.3776 47.365 40.5776 47.147C40.7236 46.988 40.9206 46.884 41.1186 46.807C41.3516 46.716 41.5976 46.66 41.8446 46.624C41.9676 46.606 42.0946 46.592 42.2226 46.582C42.2526 46.573 42.2826 46.562 42.3126 46.554C42.9516 46.383 43.6486 46.365 44.2996 46.477C44.4426 46.502 44.5956 46.527 44.7296 46.583C44.8336 46.626 44.9366 46.674 45.0366 46.727C45.2406 46.835 45.4806 46.993 45.5356 47.234C45.6526 47.747 44.9276 47.943 44.5646 48.039Z" fill="#82531D"/>
<path opacity="0.59" d="M47.9116 46.872C47.7746 46.732 47.6066 46.629 47.4256 46.548C47.4426 46.614 47.4546 46.682 47.4596 46.751C47.4816 47.091 47.3056 47.394 47.0686 47.625C46.7726 47.914 46.3946 48.115 46.0186 48.281C45.5906 48.47 45.1446 48.617 44.6946 48.744C43.7046 49.022 42.6856 49.21 41.6736 49.39C40.3166 49.63 38.9376 49.812 37.5556 49.788C36.4336 49.768 35.2786 49.61 34.2516 49.142C34.5056 49.315 34.7846 49.454 35.0686 49.559C35.1246 49.58 35.1216 49.648 35.0686 49.67C34.6526 49.839 34.2266 49.983 33.7936 50.103C32.9676 50.333 32.1166 50.484 31.2606 50.534C30.4506 50.581 29.6226 50.538 28.8376 50.319C28.7896 50.306 28.7816 50.239 28.8236 50.214C29.1586 50.017 29.5016 49.824 29.7906 49.562C29.8806 49.48 29.9616 49.392 30.0336 49.299C29.9306 49.36 29.8226 49.414 29.7106 49.46C29.0206 49.743 28.2356 49.778 27.5006 49.739C26.9416 49.709 26.3776 49.632 25.8316 49.497C26.4146 49.855 27.0076 50.222 27.6926 50.33C27.7606 50.341 27.7376 50.439 27.6776 50.443C27.1106 50.481 26.5436 50.524 25.9756 50.552C23.9366 50.649 21.6006 50.605 19.9376 49.251C19.9086 49.227 19.9196 49.178 19.9496 49.161C20.3956 48.903 20.9676 48.713 21.2986 48.296C20.8766 48.41 20.4576 48.533 20.0376 48.655C19.2366 48.888 18.4306 49.116 17.6046 49.239C16.9016 49.344 16.1916 49.365 15.4876 49.281C16.1586 49.577 16.9006 49.788 17.6286 49.72C17.6946 49.714 17.7046 49.816 17.6436 49.833C16.8516 50.051 16.0446 50.217 15.2266 50.3C14.5926 50.364 13.9586 50.364 13.3226 50.361C12.7596 50.358 12.1956 50.347 11.6326 50.304C11.6296 50.304 11.6266 50.303 11.6236 50.303C13.1586 50.673 14.7556 50.799 16.3266 50.646C17.2496 50.556 18.1586 50.373 19.0366 50.08C19.5916 50.427 20.2326 50.661 20.8446 50.832C22.1906 51.209 23.5936 51.323 24.9856 51.354C26.4576 51.387 27.9356 51.364 29.4036 51.259C30.9106 51.151 32.4176 50.951 33.8846 50.583C34.5206 50.423 35.1456 50.215 35.7556 49.974C36.3016 50.08 36.8576 50.137 37.4126 50.172C38.3326 50.23 39.2586 50.219 40.1786 50.159C41.0936 50.099 42.0046 49.996 42.9116 49.863C43.7676 49.737 44.6336 49.61 45.4706 49.385C46.2546 49.174 47.0436 48.85 47.6606 48.308C47.9106 48.089 48.1416 47.787 48.1426 47.44C48.1426 47.222 48.0626 47.026 47.9116 46.872Z" fill="#82531D"/>
<path opacity="0.69" d="M31.7896 46.432C31.4906 46.431 31.1856 46.548 31.0066 46.784C30.8726 46.871 30.7646 46.996 30.7436 47.16C30.7316 47.248 30.7686 47.327 30.8366 47.382C30.9056 47.438 30.9966 47.452 31.0826 47.46C31.2516 47.477 31.4306 47.452 31.5966 47.417C31.7866 47.376 31.9726 47.304 32.1386 47.203C32.2706 47.123 32.4236 46.975 32.4166 46.807C32.4036 46.513 32.0226 46.432 31.7896 46.432Z" fill="#82531D"/>
<path opacity="0.69" d="M41.9616 47.02C41.8926 46.994 41.8156 46.977 41.7406 46.981C41.6436 46.986 41.5556 47.009 41.4656 47.045C41.4346 47.057 41.4016 47.079 41.3736 47.105C41.2766 47.165 41.2036 47.265 41.1696 47.373C41.1526 47.428 41.1616 47.48 41.2086 47.516C41.2666 47.561 41.3436 47.575 41.4156 47.581C41.4786 47.586 41.5446 47.578 41.6036 47.56C41.6856 47.534 41.7586 47.501 41.8306 47.453C41.8896 47.414 41.9446 47.366 41.9916 47.313C42.0356 47.264 42.0666 47.207 42.0606 47.14C42.0556 47.078 42.0186 47.042 41.9616 47.02Z" fill="#82531D"/>
<path opacity="0.69" d="M39.3546 45.847C39.3456 45.825 39.3366 45.801 39.3216 45.782C39.3116 45.768 39.2966 45.756 39.2836 45.744C39.2796 45.74 39.2746 45.736 39.2696 45.732C39.2536 45.719 39.2366 45.708 39.2216 45.694C39.2076 45.682 39.1916 45.671 39.1726 45.666C39.1416 45.658 39.1096 45.657 39.0776 45.664C39.0266 45.679 38.9916 45.692 38.9456 45.722C38.9046 45.748 38.8756 45.783 38.8476 45.822C38.8386 45.834 38.8306 45.848 38.8246 45.863C38.8116 45.878 38.7996 45.896 38.7946 45.913C38.7876 45.938 38.7816 45.976 38.8026 45.996C38.8246 46.018 38.8476 46.042 38.8716 46.062C38.8916 46.079 38.9236 46.091 38.9506 46.096C38.9806 46.102 39.0106 46.106 39.0406 46.104C39.0806 46.101 39.1196 46.096 39.1596 46.09C39.2206 46.08 39.2746 46.04 39.3116 45.992C39.3276 45.974 39.3396 45.953 39.3476 45.929C39.3596 45.903 39.3606 45.875 39.3546 45.847Z" fill="#82531D"/>
<path opacity="0.69" d="M28.3656 46.278C28.3336 46.153 28.2156 46.065 28.1106 46.002C27.8756 45.863 27.5776 45.841 27.3106 45.853C26.9956 45.867 26.6486 45.931 26.4126 46.157C26.3676 46.2 26.3336 46.249 26.3046 46.303C26.2956 46.309 26.2866 46.314 26.2776 46.321C26.1596 46.415 26.0246 46.595 26.1476 46.741C26.2786 46.895 26.5366 46.908 26.7206 46.925C26.9816 46.948 27.2396 46.943 27.4986 46.904C27.7306 46.869 28.0016 46.815 28.1886 46.664C28.3026 46.57 28.4056 46.432 28.3656 46.278Z" fill="#82531D"/>
<path opacity="0.69" d="M22.3656 45.195C22.3646 45.181 22.3636 45.167 22.3616 45.153C22.3556 45.14 22.3506 45.128 22.3446 45.116C22.3356 45.101 22.3236 45.092 22.3096 45.084C22.2896 45.071 22.2666 45.062 22.2446 45.053C22.2166 45.042 22.1846 45.037 22.1546 45.037C22.1116 45.037 22.0796 45.047 22.0396 45.061C22.0366 45.062 22.0336 45.063 22.0306 45.064C22.0306 45.064 22.0286 45.065 22.0266 45.066C22.0166 45.071 21.9836 45.088 21.9756 45.095C21.9696 45.1 21.9636 45.106 21.9576 45.111C21.9416 45.114 21.9266 45.119 21.9126 45.126C21.8486 45.155 21.7836 45.234 21.8256 45.305C21.8326 45.317 21.8396 45.33 21.8466 45.342C21.8516 45.351 21.8586 45.359 21.8646 45.368C21.8796 45.389 21.8956 45.406 21.9146 45.423C21.9546 45.458 22.0106 45.465 22.0606 45.473C22.0826 45.48 22.1046 45.481 22.1266 45.477C22.1516 45.476 22.1746 45.47 22.1976 45.459C22.2446 45.436 22.2886 45.403 22.3156 45.358C22.3296 45.335 22.3416 45.311 22.3496 45.287C22.3536 45.275 22.3556 45.263 22.3586 45.251C22.3616 45.238 22.3646 45.226 22.3646 45.213C22.3666 45.206 22.3656 45.2 22.3656 45.195Z" fill="#82531D"/>
<path opacity="0.69" d="M17.2566 45.916C16.9806 45.662 16.5926 45.695 16.2736 45.849C16.0446 45.869 15.8236 45.995 15.7076 46.198C15.6856 46.237 15.6606 46.308 15.6996 46.347C15.8956 46.547 16.1926 46.584 16.4596 46.558C16.7456 46.53 17.0556 46.419 17.2436 46.19C17.3126 46.105 17.3486 46.001 17.2566 45.916Z" fill="#82531D"/>
<path opacity="0.69" d="M11.4286 46.159C11.4116 46.106 11.3666 46.063 11.3206 46.031C11.0836 45.863 10.6856 45.814 10.4726 46.047C10.4266 46.098 10.3966 46.169 10.4126 46.236C10.4266 46.294 10.4726 46.34 10.5206 46.376C10.7556 46.554 11.1156 46.573 11.3376 46.379C11.3956 46.328 11.4456 46.255 11.4336 46.179C11.4316 46.172 11.4306 46.165 11.4286 46.159Z" fill="#82531D"/>
<path opacity="0.69" d="M4.91557 46.344C4.74457 46.183 4.28057 46.166 4.09157 46.317C3.87257 46.491 4.12357 46.708 4.32757 46.742C4.51257 46.773 4.71057 46.738 4.86557 46.628C5.01257 46.523 4.99657 46.42 4.91557 46.344Z" fill="#82531D"/>
<path d="M24.1478 63.1728C24.1478 63.1728 34.7745 55.2481 29.7135 52.3001C24.631 49.3384 20.806 66.0117 24.1478 63.1728Z" fill="#CF9C52"/>
<path opacity="0.64" d="M29.7126 52.3006C24.6315 49.3392 20.806 66.0117 24.147 63.1734C24.147 63.1734 34.7744 55.2481 29.7126 52.3006ZM29.3434 56.4657C29.0518 56.9379 28.7254 57.3882 28.3876 57.8278C28.2676 58.0249 28.1419 58.2185 28.0104 58.4086C27.8444 58.6473 27.6711 58.8799 27.5013 59.1162C27.357 59.3178 27.208 59.5176 27.054 59.7111C26.728 60.1223 26.3739 60.5168 25.9679 60.8505C25.6499 61.1118 25.2951 61.3289 24.8965 61.4378C24.5181 61.5413 24.085 61.5303 23.8454 61.1753C23.6012 60.8149 23.615 60.3106 23.6497 59.8968C23.6998 59.2863 23.8441 58.6832 24.0118 58.0949C24.1903 57.4693 24.4046 56.852 24.6411 56.2457C24.8239 55.7764 25.019 55.31 25.242 54.8581C25.3297 54.6811 25.4278 54.513 25.5335 54.346C25.8156 53.902 26.1196 53.4668 26.4919 53.094C26.8547 52.7306 27.288 52.4294 27.7854 52.2862C27.9551 52.2372 28.1325 52.2328 28.3091 52.2478C28.4913 52.2075 28.6797 52.1999 28.8651 52.233C29.1924 52.2897 29.5001 52.4645 29.7428 52.6881C29.9757 52.9036 30.1417 53.1819 30.2158 53.4903C30.2897 53.8023 30.2777 54.1277 30.2192 54.4408C30.0827 55.1663 29.7272 55.8443 29.3434 56.4657Z" fill="#CF9C52"/>
<path d="M25.5809 58.3874C25.5809 58.3874 31.0299 54.3242 28.4352 52.8124C25.8292 51.2935 23.867 59.843 25.5809 58.3874Z" fill="#CF9C52"/>
<path d="M0.346516 0L6.15326 8.66958C6.90112 9.63082 7.4178 10.7526 7.65701 11.9482C8.11112 14.2159 8.60234 16.4771 9.26505 18.6918C9.78653 20.4282 10.4479 22.1919 11.7189 23.4838L25.0647 35.5361C26.0903 36.4621 27.7689 35.9309 28.0127 34.5701C28.1572 33.7692 28.0336 32.7726 27.3146 31.5995L24.1355 27.6212C23.325 26.607 23.3331 25.1643 24.1548 24.1579L24.2832 24.0023C25.1771 22.9094 26.753 22.6702 27.931 23.447L32.768 26.6407L31.423 32.3395C31.1486 33.2944 31.4793 34.3215 32.2608 34.9362L32.3716 35.0229C33.0969 35.5943 34.1642 35.3551 34.5767 34.5286L37.8263 26.281C38.0221 25.3069 37.7044 24.3005 36.9822 23.6185L35.196 21.9703L37.4202 22.7246L45.5022 30.123C46.5132 31.0473 47.9287 31.386 49.248 31.0184L49.402 30.9751C50.0151 30.8035 50.2526 30.0604 49.8513 29.5646L40.7471 18.204L48.7761 20.6578C50.413 21.0622 51.4578 19.7527 51.4578 19.7527C51.7418 19.4687 51.7146 19.037 51.392 18.7962C49.7101 17.5365 46.157 15.8611 42.856 14.4375L46.0833 13.5997C47.1971 13.3221 48.0284 12.3897 48.1761 11.2519C48.1793 11.1797 48.1841 11.0913 48.1841 10.9983C48.1841 10.6837 48.1281 10.3146 47.7476 10.3547C42.7341 10.8908 37.6453 11.0385 32.6221 10.5955C31.4762 10.496 30.3336 10.3643 29.1957 10.2007C27.5042 9.95516 25.8641 9.42719 24.3442 8.64394L23.5499 8.23462C21.2181 7.03265 17.9083 2.24357 16.5716 0L0.346516 0Z" fill="#FFBCAC"/>
<path d="M28.2918 16.8326C29.2151 16.8949 30.0898 17.2697 30.7715 17.8956L35.6695 22.3921" stroke="#EAA698" stroke-width="0.5" stroke-miterlimit="10" stroke-linecap="round" stroke-linejoin="round"/>
<path d="M40.6218 18.1576C40.6218 18.1576 36.9909 14.9362 33.607 14.5209" stroke="#EAA698" stroke-width="0.5" stroke-miterlimit="10" stroke-linecap="round" stroke-linejoin="round"/>
<path d="M35.7209 11.5293C38.78 12.6466 40.3544 13.1476 42.8508 14.4436" stroke="#EAA698" stroke-width="0.5" stroke-miterlimit="10" stroke-linecap="round" stroke-linejoin="round"/>
<path d="M49.8398 29.6301C49.6674 29.7904 49.4368 29.887 49.2017 29.8973C48.9001 29.9105 48.6053 29.7855 48.3624 29.6063C48.1192 29.4271 47.9204 29.1961 47.7236 28.967C47.4235 28.6177 47.1236 28.2682 46.8236 27.9189" stroke="#EAA698" stroke-width="0.5" stroke-miterlimit="10" stroke-linecap="round" stroke-linejoin="round"/>
<path d="M34.4696 34.4541C34.246 34.3803 34.0504 34.2249 33.9279 34.0236C33.7712 33.7656 33.7387 33.4473 33.7785 33.1479C33.8183 32.8487 33.925 32.563 34.031 32.2802C34.1926 31.849 34.3544 31.4178 34.5159 30.9865" stroke="#EAA698" stroke-width="0.5" stroke-miterlimit="10" stroke-linecap="round" stroke-linejoin="round"/>
<path d="M51.3317 18.8191C51.2032 19.0164 51.0028 19.1656 50.7769 19.2325C50.4874 19.3181 50.1713 19.2679 49.8921 19.1528C49.6129 19.0377 49.3641 18.8613 49.1179 18.6866C48.7424 18.42 48.367 18.1533 47.9915 17.8867" stroke="#EAA698" stroke-width="0.5" stroke-miterlimit="10" stroke-linecap="round" stroke-linejoin="round"/>
<path d="M47.3782 10.4876C47.4018 10.6671 47.3596 10.8549 47.2611 11.0069C47.1348 11.2018 46.925 11.3309 46.7042 11.4034C46.4835 11.4759 46.25 11.4974 46.0186 11.5186C45.6657 11.5509 45.313 11.5831 44.9601 11.6154" stroke="#EAA698" stroke-width="0.5" stroke-miterlimit="10" stroke-linecap="round" stroke-linejoin="round"/>
<path d="M25.6946 35.91C25.8846 35.5237 26.0442 35.086 25.9341 34.6699C25.8587 34.3842 25.6645 34.1456 25.4612 33.9312C24.9594 33.4021 24.3678 32.9582 23.7195 32.6245" stroke="#EAA698" stroke-width="0.5" stroke-miterlimit="10" stroke-linecap="round" stroke-linejoin="round"/>
<path opacity="0.3" d="M27.865 32.7698C27.7454 32.4022 27.5675 32.0123 27.3145 31.6003L24.136 27.6216C23.3256 26.6077 23.3324 25.1647 24.1548 24.1576L24.2831 24.002C25.1773 22.9095 26.7537 22.6701 27.93 23.4464L32.767 26.6402C32.767 26.6402 27.8924 19.5207 23.6282 22.494C19.8462 25.1322 26.3451 31.3866 27.865 32.7698Z" fill="#FFBCAC"/>
<path opacity="0.3" d="M0.346237 0L6.15263 8.67027C6.90151 9.63116 7.41786 10.7528 7.65723 11.9479C8.11032 14.2151 8.60273 16.4771 9.26442 18.6913C9.7859 20.4284 10.4476 22.1912 11.7179 23.4838L12.5352 24.2224C11.4153 20.2728 10.2937 16.3232 9.1738 12.3736C8.82159 11.1323 8.46596 9.88079 7.83505 8.75576C7.34434 7.88206 6.70147 7.10582 6.05347 6.34156C4.21888 4.17698 2.32444 2.06199 0.3753 0H0.346237Z" fill="#FFBCAC"/>
</svg>
